<?xml version="1.0" standalone="no"?>
<!DOCTYPE svg PUBLIC "-//W3C//DTD SVG 20010904//EN"
 "http://www.w3.org/TR/2001/REC-SVG-20010904/DTD/svg10.dtd">
<svg version="1.0" xmlns="http://www.w3.org/2000/svg"
 width="618.000000pt" height="618.000000pt" viewBox="0 0 618.000000 618.000000"
 preserveAspectRatio="xMidYMid meet">
<metadata>
Created by potrace 1.14, written by Peter Selinger 2001-2017
</metadata>
<g transform="translate(0.000000,618.000000) scale(0.100000,-0.100000)"
fill="#000000" stroke="none">
<path d="M2455 6150 c-126 -20 -213 -41 -271 -67 -21 -9 -45 -18 -52 -19 -31
-6 -152 -92 -198 -141 -53 -56 -103 -145 -125 -220 -6 -23 -15 -41 -18 -40
-12 2 -81 -27 -81 -35 0 -4 -5 -8 -12 -8 -12 0 -174 -78 -193 -93 -5 -4 -53
-33 -105 -64 -52 -32 -99 -61 -105 -65 -5 -5 -49 -37 -96 -71 -47 -35 -92 -69
-100 -75 -8 -7 -32 -26 -54 -44 -51 -41 -338 -328 -351 -350 -5 -8 -24 -33
-41 -54 -18 -22 -46 -57 -63 -79 -16 -22 -33 -44 -38 -50 -49 -61 -202 -311
-202 -331 0 -8 -4 -14 -8 -14 -15 0 -172 -356 -172 -390 0 -9 -4 -20 -9 -25
-10 -11 -57 -166 -76 -255 -2 -8 -4 -15 -5 -15 -1 0 -3 -7 -5 -15 -1 -8 -7
-40 -14 -70 -20 -103 -29 -157 -36 -220 -2 -19 -8 -66 -12 -105 -4 -38 -8
-171 -7 -295 1 -204 4 -274 20 -365 3 -16 7 -48 9 -70 5 -45 12 -83 25 -135 5
-19 11 -51 14 -71 3 -20 10 -47 15 -60 5 -13 9 -26 9 -29 3 -33 66 -230 111
-343 54 -135 195 -415 233 -462 5 -5 28 -41 53 -78 25 -38 66 -96 92 -130 72
-95 83 -108 161 -196 44 -49 63 -82 83 -140 14 -42 34 -94 44 -116 10 -22 19
-58 20 -80 1 -22 3 -48 4 -57 0 -10 10 -26 22 -37 25 -23 68 -20 107 8 23 16
39 19 101 14 68 -4 78 -8 140 -53 37 -26 78 -53 92 -60 13 -7 26 -16 29 -19
14 -17 244 -141 262 -141 9 0 18 -4 20 -9 2 -5 51 -30 111 -55 186 -79 412
-148 592 -182 50 -9 99 -18 110 -20 11 -2 43 -6 70 -9 28 -3 82 -9 120 -13 94
-9 451 -9 545 1 139 15 240 31 340 54 36 8 74 17 85 19 11 3 30 7 42 10 74 15
303 94 390 134 24 11 45 20 48 20 12 0 189 89 274 138 86 49 227 141 262 170
8 6 61 48 119 94 204 159 451 428 599 653 36 55 69 102 74 103 4 2 5 7 2 12
-3 4 2 13 10 20 8 7 15 18 15 25 0 8 3 15 8 17 4 2 34 55 66 118 32 63 60 116
60 117 1 1 24 5 51 8 28 4 59 12 70 18 11 6 20 9 20 8 0 -8 66 16 105 37 126
69 185 139 250 297 14 35 40 147 55 235 13 82 15 467 2 515 -2 11 -8 45 -11
76 -4 31 -9 67 -12 80 -2 13 -7 40 -10 59 -2 19 -7 43 -10 52 -3 10 -7 30 -10
45 -18 102 -108 399 -154 508 -66 152 -67 157 -53 215 7 30 15 72 18 93 3 21
7 48 10 60 33 153 35 449 4 621 -28 159 -98 351 -175 478 -21 35 -40 65 -43
68 -3 3 -22 28 -41 55 -120 173 -348 360 -570 468 -94 46 -260 110 -260 101 0
-3 -8 0 -18 5 -11 6 -30 12 -43 15 -13 2 -53 11 -89 19 -36 8 -92 18 -125 22
-33 4 -73 9 -90 11 -43 6 -333 6 -376 0 -19 -2 -63 -7 -98 -11 -34 -4 -72 -8
-84 -11 -12 -2 -35 -6 -52 -10 -21 -4 -50 4 -100 27 -179 81 -495 183 -665
213 -19 3 -44 8 -55 10 -11 2 -42 7 -70 11 -27 5 -59 10 -70 12 -44 8 -413 10
-460 3z"/>
</g>
</svg>
